<?xml version="1.0" encoding="UTF-8" standalone="no"?>
<!-- Generator: Adobe Illustrator 17.1.0, SVG Export Plug-In . SVG Version: 6.00 Build 0)  -->

<svg
   version="1.1"
   id="Capa_1"
   x="0px"
   y="0px"
   viewBox="0 0 63.999997 62.536557"
   xml:space="preserve"
   sodipodi:docname="kamera.svg"
   width="64"
   height="62.53656"
   inkscape:version="1.3.2 (091e20e, 2023-11-25, custom)"
   xmlns:inkscape="http://www.inkscape.org/namespaces/inkscape"
   xmlns:sodipodi="http://sodipodi.sourceforge.net/DTD/sodipodi-0.dtd"
   xmlns="http://www.w3.org/2000/svg"
   xmlns:svg="http://www.w3.org/2000/svg"
   xmlns:rdf="http://www.w3.org/1999/02/22-rdf-syntax-ns#"
   xmlns:cc="http://creativecommons.org/ns#"
   xmlns:dc="http://purl.org/dc/elements/1.1/"><metadata
   id="metadata39"><rdf:RDF><cc:Work
       rdf:about=""><dc:format>image/svg+xml</dc:format><dc:type
         rdf:resource="http://purl.org/dc/dcmitype/StillImage" /><dc:title /></cc:Work></rdf:RDF></metadata><defs
   id="defs37" /><sodipodi:namedview
   pagecolor="#ffffff"
   bordercolor="#666666"
   borderopacity="1"
   objecttolerance="10"
   gridtolerance="10"
   guidetolerance="10"
   inkscape:pageopacity="0"
   inkscape:pageshadow="2"
   inkscape:window-width="1920"
   inkscape:window-height="1009"
   id="namedview35"
   showgrid="false"
   fit-margin-top="0"
   fit-margin-left="0"
   fit-margin-right="0"
   fit-margin-bottom="0"
   inkscape:zoom="6.5726258"
   inkscape:cx="28.907777"
   inkscape:cy="27.310242"
   inkscape:window-x="-8"
   inkscape:window-y="-8"
   inkscape:window-maximized="1"
   inkscape:current-layer="Capa_1"
   inkscape:showpageshadow="2"
   inkscape:pagecheckerboard="0"
   inkscape:deskcolor="#d1d1d1" />
<path
   d="m 60.781111,20.58811 c 0.727221,-0.44716 1.413893,-0.86936 1.912075,-1.18797 0.886969,-0.56725 1.375793,-0.87984 1.298927,-1.62377 L 63.913463,17.0721 63.254196,16.83526 C 59.339367,15.42805 17.30982,0.34334 17.310712,0.34334 c 0,0 0,0 0,2.2e-4 C 16.705808,0.11564 16.082858,0 15.459462,0 c -1.669,0 -3.069747,0.85578 -3.568597,2.17988 L 4.2459086,24.54394 c -0.3803206,1.1365 -0.2370598,2.36547 0.4030462,3.4612 0.6118104,1.04739 1.6104026,1.84568 2.8112977,2.24762 l 15.0022765,5.02125 -2.953444,6.28075 c -0.114965,0.16888 -0.445601,0.44003 -0.63565,0.51489 L 7.352417,44.62117 v -7.12895 c 0,-2.03016 -1.6460506,-3.67621 -3.6762095,-3.67621 C 1.6460507,33.81601 0,35.46183 0,37.49222 v 19.6265 c 0,3.01003 2.4316455,5.41784 5.4416813,5.41784 H 20.692604 c 2.030158,0 3.676209,-1.64605 3.676209,-3.67621 0,-2.03016 -1.646051,-3.67621 -3.676209,-3.67621 H 7.352419 V 52.1516 L 20.49899,49.24049 c 2.319131,-0.51333 4.640936,-2.37305 5.651782,-4.52263 l 3.333765,-7.09419 15.366333,5.14357 c 0.547421,0.18314 1.112666,0.27605 1.680808,0.27605 2.004536,0 3.741044,-1.16525 4.321662,-2.90042 l 1.329451,-3.97966 1.231865,0.42733 -0.319273,0.95337 c -0.21077,0.62941 -0.16309,1.30449 0.134126,1.90093 0.297438,0.59644 0.807652,1.04092 1.437063,1.25125 l 1.392504,0.46632 c 0.254661,0.0851 0.519125,0.12811 0.786486,0.12811 1.074121,0 2.024589,-0.68288 2.365028,-1.70019 l 3.917725,-11.72845 c 0.435798,-1.30182 -0.268697,-2.71549 -1.570967,-3.15173 l -1.392503,-0.46588 c -0.254661,-0.0853 -0.519571,-0.12856 -0.787155,-0.12856 -1.073898,0 -2.024143,0.68289 -2.364805,1.69975 l -0.313035,0.93621 -1.230304,-0.42689 0.981882,-2.93896 c 0.598665,-0.5042 2.912449,-1.92656 4.329683,-2.79771 z m -10.820533,1.57052 c -0.485705,1.3709 -1.774383,2.22712 -3.1504,2.22712 -0.370294,0 -0.746827,-0.0619 -1.115785,-0.1925 L 17.127794,14.0761 C 15.387945,13.45983 14.477136,11.54998 15.093179,9.81014 15.709669,8.07006 17.619292,7.1597 19.359142,7.77552 l 28.566822,10.11715 c 1.739849,0.61605 2.650881,2.52611 2.034614,4.26596 z"
   id="path2"
   inkscape:connector-curvature="0"
   style="stroke-width:0.22280058;fill:#000000;fill-opacity:1" />
<g
   id="g4"
   transform="translate(0,-221.43144)">
</g>
<g
   id="g6"
   transform="translate(0,-221.43144)">
</g>
<g
   id="g8"
   transform="translate(0,-221.43144)">
</g>
<g
   id="g10"
   transform="translate(0,-221.43144)">
</g>
<g
   id="g12"
   transform="translate(0,-221.43144)">
</g>
<g
   id="g14"
   transform="translate(0,-221.43144)">
</g>
<g
   id="g16"
   transform="translate(0,-221.43144)">
</g>
<g
   id="g18"
   transform="translate(0,-221.43144)">
</g>
<g
   id="g20"
   transform="translate(0,-221.43144)">
</g>
<g
   id="g22"
   transform="translate(0,-221.43144)">
</g>
<g
   id="g24"
   transform="translate(0,-221.43144)">
</g>
<g
   id="g26"
   transform="translate(0,-221.43144)">
</g>
<g
   id="g28"
   transform="translate(0,-221.43144)">
</g>
<g
   id="g30"
   transform="translate(0,-221.43144)">
</g>
<g
   id="g32"
   transform="translate(0,-221.43144)">
</g>
</svg>
