<?xml version="1.0" encoding="UTF-8" standalone="no"?>
<svg
   version="1.1"
   id="Layer_1"
   x="0px"
   y="0px"
   viewBox="0 0 63.999994 52.696576"
   enable-background="new 0 0 2001.081 1647.658"
   xml:space="preserve"
   sodipodi:docname="WIFI.svg"
   width="63.999996"
   height="52.696575"
   inkscape:version="1.3.2 (091e20e, 2023-11-25, custom)"
   xmlns:inkscape="http://www.inkscape.org/namespaces/inkscape"
   xmlns:sodipodi="http://sodipodi.sourceforge.net/DTD/sodipodi-0.dtd"
   xmlns="http://www.w3.org/2000/svg"
   xmlns:svg="http://www.w3.org/2000/svg"
   xmlns:rdf="http://www.w3.org/1999/02/22-rdf-syntax-ns#"
   xmlns:cc="http://creativecommons.org/ns#"
   xmlns:dc="http://purl.org/dc/elements/1.1/"><metadata
   id="metadata29"><rdf:RDF><cc:Work
       rdf:about=""><dc:format>image/svg+xml</dc:format><dc:type
         rdf:resource="http://purl.org/dc/dcmitype/StillImage" /><dc:title /></cc:Work></rdf:RDF></metadata><defs
   id="defs27" /><sodipodi:namedview
   pagecolor="#ffffff"
   bordercolor="#666666"
   borderopacity="1"
   objecttolerance="10"
   gridtolerance="10"
   guidetolerance="10"
   inkscape:pageopacity="0"
   inkscape:pageshadow="2"
   inkscape:window-width="1920"
   inkscape:window-height="1009"
   id="namedview25"
   showgrid="false"
   fit-margin-top="0"
   fit-margin-left="0"
   fit-margin-right="0"
   fit-margin-bottom="0"
   inkscape:zoom="6.4820133"
   inkscape:cx="38.413991"
   inkscape:cy="38.028308"
   inkscape:window-x="-8"
   inkscape:window-y="-8"
   inkscape:window-maximized="1"
   inkscape:current-layer="g22"
   inkscape:showpageshadow="2"
   inkscape:pagecheckerboard="0"
   inkscape:deskcolor="#d1d1d1" />
<g
   id="g22"
   transform="matrix(0.03293536,0,0,0.03293536,-0.95316184,-0.78481833)">
	<g
   id="g18">
		<g
   id="g4"
   style="fill:#000000;fill-opacity:1">
			<path
   d="M 1847.092,520.198 C 1380.308,53.414 620.793,53.414 154.01,520.197 86.108,588.099 -16.737,485.399 51.238,417.425 574.4,-105.737 1423.438,-109 1949.864,417.426 c 67.902,67.902 -34.798,170.746 -102.772,102.772 z"
   id="path2"
   inkscape:connector-curvature="0"
   style="fill:#000000;fill-opacity:1" />
		</g>
		<g
   id="g8"
   style="fill:#000000;fill-opacity:1">
			<path
   d="m 1622.612,744.679 c -343.005,-343.005 -901.116,-343.005 -1244.12,0 -67.902,67.902 -170.746,-34.798 -102.772,-102.772 400.897,-400.897 1048.712,-400.953 1449.664,0 67.901,67.901 -34.798,170.746 -102.772,102.772 z"
   id="path6"
   inkscape:connector-curvature="0"
   style="fill:#000000;fill-opacity:1" />
		</g>
		<g
   id="g12"
   style="fill:#000000;fill-opacity:1">
			<path
   d="M 1398.129,969.162 C 1178.903,749.936 822.198,749.936 602.973,969.161 535.071,1037.063 432.227,934.363 500.201,866.389 c 276.731,-276.731 723.929,-276.769 1000.7,10e-4 67.901,67.901 -34.798,170.746 -102.772,102.772 z"
   id="path10"
   inkscape:connector-curvature="0"
   style="fill:#000000;fill-opacity:1" />
		</g>
		<g
   id="g16"
   style="fill:#000000;fill-opacity:1">
			<path
   d="m 1173.647,1193.643 c -95.446,-95.446 -250.747,-95.447 -346.192,-10e-4 -67.902,67.902 -170.746,-34.798 -102.772,-102.772 152.115,-152.115 399.622,-152.116 551.738,0 67.89,67.89 -34.782,170.765 -102.774,102.773 z"
   id="path14"
   inkscape:connector-curvature="0"
   style="fill:#000000;fill-opacity:1" />
		</g>
	</g>
	<circle
   cx="1000.541"
   cy="1448.949"
   r="174.88"
   id="circle20"
   style="fill:#000000;fill-opacity:1" />
</g>
</svg>
