<?xml version="1.0" encoding="UTF-8" standalone="no"?>
<!-- Generator: Adobe Illustrator 18.1.1, SVG Export Plug-In . SVG Version: 6.00 Build 0)  -->

<svg
   version="1.1"
   id="Capa_1"
   x="0px"
   y="0px"
   viewBox="0 0 63.999998 95.078679"
   xml:space="preserve"
   sodipodi:docname="bilet-kier.svg"
   width="64"
   height="95.078682"
   inkscape:version="1.3.2 (091e20e, 2023-11-25, custom)"
   xmlns:inkscape="http://www.inkscape.org/namespaces/inkscape"
   xmlns:sodipodi="http://sodipodi.sourceforge.net/DTD/sodipodi-0.dtd"
   xmlns="http://www.w3.org/2000/svg"
   xmlns:svg="http://www.w3.org/2000/svg"
   xmlns:rdf="http://www.w3.org/1999/02/22-rdf-syntax-ns#"
   xmlns:cc="http://creativecommons.org/ns#"
   xmlns:dc="http://purl.org/dc/elements/1.1/"><metadata
     id="metadata52"><rdf:RDF><cc:Work
         rdf:about=""><dc:format>image/svg+xml</dc:format><dc:type
           rdf:resource="http://purl.org/dc/dcmitype/StillImage" /><dc:title /></cc:Work></rdf:RDF></metadata><defs
     id="defs50" /><sodipodi:namedview
     pagecolor="#ffffff"
     bordercolor="#666666"
     borderopacity="1"
     objecttolerance="10"
     gridtolerance="10"
     guidetolerance="10"
     inkscape:pageopacity="0"
     inkscape:pageshadow="2"
     inkscape:window-width="1920"
     inkscape:window-height="1009"
     id="namedview48"
     showgrid="false"
     inkscape:pagecheckerboard="true"
     fit-margin-top="0"
     fit-margin-left="0"
     fit-margin-right="0"
     fit-margin-bottom="0"
     inkscape:zoom="2.6993446"
     inkscape:cx="41.862013"
     inkscape:cy="80.945575"
     inkscape:window-x="-8"
     inkscape:window-y="-8"
     inkscape:window-maximized="1"
     inkscape:current-layer="Capa_1"
     inkscape:showpageshadow="2"
     inkscape:deskcolor="#d1d1d1" /><g
     id="g15"
     transform="matrix(0.19224473,0,0,0.19224473,-15.539334,9.8308047e-6)"
     style="fill:#000000;fill-opacity:1"><g
       id="Icons_35_"
       style="fill:#000000;fill-opacity:1"><g
         id="g12"
         style="fill:#000000;fill-opacity:1"><path
           d="M 406.453,32.159 379.622,5.317 C 372.3,-1.885 359.355,-1.69 352.39,5.412 L 334.959,22.853 317.673,5.575 c -7.293,-7.176 -19.768,-7.274 -27.25,0.098 l -17.172,17.18 -15.73,-15.739 c -7.293,-7.177 -19.75,-7.274 -27.233,0.098 L 214.65,22.853 198.902,7.114 C 191.615,-0.063 179.158,-0.16 171.67,7.212 L 156.036,22.853 140.307,7.114 C 133.013,-0.063 120.556,-0.16 113.073,7.212 L 88.126,32.159 c -4.699,4.698 -7.295,10.953 -7.295,17.612 l 0.018,316.197 h -0.018 v 78.582 c 0,6.659 2.596,12.914 7.295,17.611 l 25.044,25.048 c 7.288,7.176 19.751,7.282 27.233,-0.106 l 15.633,-15.636 15.73,15.742 c 7.293,7.176 19.75,7.273 27.232,-0.097 l 15.633,-15.645 15.747,15.742 c 7.294,7.176 19.751,7.273 27.233,-0.097 l 15.639,-15.645 17.27,17.281 c 7.287,7.176 19.762,7.273 27.25,-0.098 l 17.188,-17.183 17.333,17.344 c 3.595,3.661 8.619,5.76 13.754,5.76 5.105,0 9.93,-1.978 13.674,-5.662 l 26.733,-26.748 c 4.698,-4.697 7.288,-10.952 7.288,-17.611 V 365.96 49.77 c 10e-4,-6.659 -2.589,-12.913 -7.287,-17.611 z m -25.889,408.973 -11.94,11.938 c -0.684,0.684 -1.611,1.067 -2.578,1.067 -0.967,0 -1.894,-0.384 -2.577,-1.068 l -14.95,-14.958 c -3.647,-3.59 -8.471,-5.565 -13.576,-5.565 -5.152,0 -10.011,2.007 -13.657,5.662 l -14.61,14.61 c -0.684,0.684 -1.611,1.068 -2.578,1.068 -0.967,0 -1.894,-0.385 -2.577,-1.069 l -14.692,-14.706 c -7.294,-7.179 -19.75,-7.276 -27.233,0.097 l -13.062,13.064 c -1.423,1.423 -3.73,1.424 -5.154,0.001 L 228.21,438.11 c -7.287,-7.179 -19.744,-7.276 -27.232,0.097 l -13.057,13.063 c -1.423,1.424 -3.73,1.424 -5.154,0.001 l -13.17,-13.162 c -7.287,-7.179 -19.75,-7.282 -27.232,0.103 l -13.056,13.058 c -1.423,1.424 -3.731,1.424 -5.154,0 l -10.144,-10.141 v -75.165 h 0.018 l -0.018,-312.777 10.143,-10.14 c 0.684,-0.684 1.611,-1.067 2.578,-1.067 0.967,0 1.894,0.385 2.577,1.068 l 13.153,13.16 c 7.293,7.176 19.75,7.274 27.233,-0.098 l 13.056,-13.062 c 1.423,-1.424 3.73,-1.425 5.154,-0.002 l 13.169,13.162 c 7.294,7.176 19.751,7.274 27.233,-0.098 L 241.37,43.047 c 1.423,-1.423 3.73,-1.423 5.153,-10e-4 l 13.17,13.162 c 7.288,7.176 19.744,7.274 27.233,-0.098 l 14.595,-14.608 c 0.684,-0.684 1.61,-1.068 2.577,-1.069 0.967,0 1.895,0.384 2.578,1.067 l 14.61,14.61 c 7.259,7.274 19.813,7.412 27.331,0 L 363.47,41.248 c 0.684,-0.684 1.61,-1.068 2.577,-1.068 0.967,0 1.895,0.384 2.578,1.067 l 11.94,11.94 v 312.769 75.176 z"
           id="path2"
           inkscape:connector-curvature="0"
           style="fill:#000000;fill-opacity:1" /><path
           d="m 159.166,140.883 h 88.132 c 9.166,0 16.586,-7.429 16.586,-16.589 0,-9.163 -7.42,-16.588 -16.586,-16.588 h -88.132 c -9.171,0 -16.592,7.425 -16.592,16.588 0,9.16 7.421,16.589 16.592,16.589 z"
           id="path4"
           inkscape:connector-curvature="0"
           style="fill:#000000;fill-opacity:1" /><path
           d="M 330.243,190.652 H 159.166 c -9.171,0 -16.592,7.428 -16.592,16.591 0,9.16 7.421,16.588 16.592,16.588 h 171.077 c 9.172,0 16.593,-7.428 16.593,-16.588 0,-9.163 -7.421,-16.591 -16.593,-16.591 z"
           id="path6"
           inkscape:connector-curvature="0"
           style="fill:#000000;fill-opacity:1" /><path
           d="m 159.166,306.777 h 121.31 c 9.171,0 16.592,-7.425 16.592,-16.588 0,-9.16 -7.421,-16.588 -16.592,-16.588 h -121.31 c -9.171,0 -16.592,7.428 -16.592,16.588 0,9.163 7.421,16.588 16.592,16.588 z"
           id="path8"
           inkscape:connector-curvature="0"
           style="fill:#000000;fill-opacity:1" /><path
           d="M 330.243,356.546 H 159.166 c -9.171,0 -16.592,7.429 -16.592,16.592 0,9.16 7.421,16.588 16.592,16.588 h 171.077 c 9.172,0 16.593,-7.428 16.593,-16.588 0,-9.163 -7.421,-16.592 -16.593,-16.592 z"
           id="path10"
           inkscape:connector-curvature="0"
           style="fill:#000000;fill-opacity:1" /></g></g></g><g
     id="g17"
     transform="translate(-80.831,-399.49232)" /><g
     id="g19"
     transform="translate(-80.831,-399.49232)" /><g
     id="g21"
     transform="translate(-80.831,-399.49232)" /><g
     id="g23"
     transform="translate(-80.831,-399.49232)" /><g
     id="g25"
     transform="translate(-80.831,-399.49232)" /><g
     id="g27"
     transform="translate(-80.831,-399.49232)" /><g
     id="g29"
     transform="translate(-80.831,-399.49232)" /><g
     id="g31"
     transform="translate(-80.831,-399.49232)" /><g
     id="g33"
     transform="translate(-80.831,-399.49232)" /><g
     id="g35"
     transform="translate(-80.831,-399.49232)" /><g
     id="g37"
     transform="translate(-80.831,-399.49232)" /><g
     id="g39"
     transform="translate(-80.831,-399.49232)" /><g
     id="g41"
     transform="translate(-80.831,-399.49232)" /><g
     id="g43"
     transform="translate(-80.831,-399.49232)" /><g
     id="g45"
     transform="translate(-80.831,-399.49232)" /></svg>
