<?xml version="1.0" encoding="UTF-8" standalone="no"?>
<!-- Generator: Adobe Illustrator 17.1.0, SVG Export Plug-In . SVG Version: 6.00 Build 0)  -->

<svg
   version="1.1"
   id="Capa_1"
   x="0px"
   y="0px"
   viewBox="0 0 64.000002 113.80762"
   xml:space="preserve"
   sodipodi:docname="biletomat.svg"
   width="64"
   height="113.80762"
   inkscape:version="1.3.2 (091e20e, 2023-11-25, custom)"
   xmlns:inkscape="http://www.inkscape.org/namespaces/inkscape"
   xmlns:sodipodi="http://sodipodi.sourceforge.net/DTD/sodipodi-0.dtd"
   xmlns="http://www.w3.org/2000/svg"
   xmlns:svg="http://www.w3.org/2000/svg"
   xmlns:rdf="http://www.w3.org/1999/02/22-rdf-syntax-ns#"
   xmlns:cc="http://creativecommons.org/ns#"
   xmlns:dc="http://purl.org/dc/elements/1.1/"><metadata
   id="metadata39"><rdf:RDF><cc:Work
       rdf:about=""><dc:format>image/svg+xml</dc:format><dc:type
         rdf:resource="http://purl.org/dc/dcmitype/StillImage" /><dc:title /></cc:Work></rdf:RDF></metadata><defs
   id="defs37" /><sodipodi:namedview
   pagecolor="#ffffff"
   bordercolor="#666666"
   borderopacity="1"
   objecttolerance="10"
   gridtolerance="10"
   guidetolerance="10"
   inkscape:pageopacity="0"
   inkscape:pageshadow="2"
   inkscape:window-width="1920"
   inkscape:window-height="1009"
   id="namedview35"
   showgrid="false"
   fit-margin-top="0"
   fit-margin-left="0"
   fit-margin-right="0"
   fit-margin-bottom="0"
   inkscape:zoom="6.5495658"
   inkscape:cx="19.237917"
   inkscape:cy="47.102359"
   inkscape:window-x="-8"
   inkscape:window-y="-8"
   inkscape:window-maximized="1"
   inkscape:current-layer="Capa_1"
   inkscape:pagecheckerboard="true"
   inkscape:showpageshadow="2"
   inkscape:deskcolor="#d1d1d1" />
<path
   d="M 62.32443,113.80762 H 1.675013 C 0.749847,113.80762 0,113.05777 0,112.13261 V 7.86921 C 0,3.52981 3.52981,0 7.869209,0 H 56.13079 C 60.46963,0 64,3.52981 64,7.86921 v 104.2634 c -5.6e-4,0.92516 -0.75041,1.67501 -1.67557,1.67501 z M 3.350025,110.45759 H 60.64942 V 78.259938 H 3.350025 Z m 0,-35.547112 H 60.64942 V 7.86921 c 0,-2.491861 -2.02733,-4.519185 -4.51919,-4.519185 H 7.869209 c -2.49186,0 -4.519184,2.027324 -4.519184,4.519185 z m 23.998465,-3.87933 h -0.874357 c -0.925165,0 -1.675012,-0.74985 -1.675012,-1.67502 0,-0.92516 0.749847,-1.67501 1.675012,-1.67501 h 0.874357 c 0.925165,0 1.675013,0.74985 1.675013,1.67501 0,0.92517 -0.749848,1.67502 -1.675013,1.67502 z m -7.178546,0 h -0.874357 c -0.925165,0 -1.675012,-0.74985 -1.675012,-1.67502 0,-0.92516 0.749847,-1.67501 1.675012,-1.67501 h 0.874357 c 0.925165,0 1.675013,0.74985 1.675013,1.67501 0,0.92517 -0.749848,1.67502 -1.675013,1.67502 z m -7.177988,0 H 12.1176 c -0.925165,0 -1.675013,-0.74985 -1.675013,-1.67502 0,-0.92516 0.749848,-1.67501 1.675013,-1.67501 h 0.874356 c 0.925166,0 1.675013,0.74985 1.675013,1.67501 0,0.92517 -0.749847,1.67502 -1.675013,1.67502 z M 51.8824,68.687248 H 38.921711 c -0.925166,0 -1.675013,-0.74985 -1.675013,-1.67502 v -8.35049 c 0,-0.92517 0.749847,-1.67502 1.675013,-1.67502 H 51.8824 c 0.925165,0 1.675013,0.74985 1.675013,1.67502 v 8.35049 c 0,0.92461 -0.749848,1.67502 -1.675013,1.67502 z m -11.285677,-3.35003 h 9.610665 v -5.00047 h -9.610665 z m -13.248233,0.34673 h -0.874357 c -0.925165,0 -1.675012,-0.74985 -1.675012,-1.67501 0,-0.92517 0.749847,-1.67502 1.675012,-1.67502 h 0.874357 c 0.925165,0 1.675013,0.74985 1.675013,1.67502 0,0.92516 -0.749848,1.67501 -1.675013,1.67501 z m -7.178546,0 h -0.874357 c -0.925165,0 -1.675012,-0.74985 -1.675012,-1.67501 0,-0.92517 0.749847,-1.67502 1.675012,-1.67502 h 0.874357 c 0.925165,0 1.675013,0.74985 1.675013,1.67502 0,0.92516 -0.749848,1.67501 -1.675013,1.67501 z m -7.177988,0 H 12.1176 c -0.925165,0 -1.675013,-0.74985 -1.675013,-1.67501 0,-0.92517 0.749848,-1.67502 1.675013,-1.67502 h 0.874356 c 0.925166,0 1.675013,0.74985 1.675013,1.67502 0,0.92516 -0.749847,1.67501 -1.675013,1.67501 z m 14.356534,-5.3472 h -0.874357 c -0.925165,0 -1.675012,-0.74985 -1.675012,-1.67501 0,-0.92517 0.749847,-1.67502 1.675012,-1.67502 h 0.874357 c 0.925165,0 1.675013,0.74985 1.675013,1.67502 0,0.92516 -0.749848,1.67501 -1.675013,1.67501 z m -7.178546,0 h -0.874357 c -0.925165,0 -1.675012,-0.74985 -1.675012,-1.67501 0,-0.92517 0.749847,-1.67502 1.675012,-1.67502 h 0.874357 c 0.925165,0 1.675013,0.74985 1.675013,1.67502 0,0.92516 -0.749848,1.67501 -1.675013,1.67501 z m -7.177988,0 H 12.1176 c -0.925165,0 -1.675013,-0.74985 -1.675013,-1.67501 0,-0.92517 0.749848,-1.67502 1.675013,-1.67502 h 0.874356 c 0.925166,0 1.675013,0.74985 1.675013,1.67502 0,0.92516 -0.749847,1.67501 -1.675013,1.67501 z M 51.8824,52.718788 H 12.1176 c -0.925165,0 -1.675013,-0.74985 -1.675013,-1.67501 v -38.08867 c 0,-0.92517 0.749848,-1.67501 1.675013,-1.67501 h 39.7648 c 0.925165,0 1.675013,0.74984 1.675013,1.67501 v 38.08867 c 0,0.92516 -0.749848,1.67501 -1.675013,1.67501 z M 13.792612,49.368768 H 50.207388 V 14.630118 H 13.792612 Z"
   id="path2"
   inkscape:connector-curvature="0"
   style="stroke-width:1.5;fill:#000000;fill-opacity:1;stroke:#000000;stroke-opacity:1;stroke-miterlimit:4;stroke-dasharray:none" />
<g
   id="g4"
   transform="translate(-44.604,-90.025382)">
</g>
<g
   id="g6"
   transform="translate(-44.604,-90.025382)">
</g>
<g
   id="g8"
   transform="translate(-44.604,-90.025382)">
</g>
<g
   id="g10"
   transform="translate(-44.604,-90.025382)">
</g>
<g
   id="g12"
   transform="translate(-44.604,-90.025382)">
</g>
<g
   id="g14"
   transform="translate(-44.604,-90.025382)">
</g>
<g
   id="g16"
   transform="translate(-44.604,-90.025382)">
</g>
<g
   id="g18"
   transform="translate(-44.604,-90.025382)">
</g>
<g
   id="g20"
   transform="translate(-44.604,-90.025382)">
</g>
<g
   id="g22"
   transform="translate(-44.604,-90.025382)">
</g>
<g
   id="g24"
   transform="translate(-44.604,-90.025382)">
</g>
<g
   id="g26"
   transform="translate(-44.604,-90.025382)">
</g>
<g
   id="g28"
   transform="translate(-44.604,-90.025382)">
</g>
<g
   id="g30"
   transform="translate(-44.604,-90.025382)">
</g>
<g
   id="g32"
   transform="translate(-44.604,-90.025382)">
</g>
</svg>
