<?xml version="1.0" encoding="UTF-8" standalone="no"?>
<!-- Generator: Adobe Illustrator 18.1.1, SVG Export Plug-In . SVG Version: 6.00 Build 0)  -->

<svg
   version="1.1"
   id="Capa_1"
   x="0px"
   y="0px"
   viewBox="0 0 34.160659 63.999999"
   xml:space="preserve"
   sodipodi:docname="USB.svg"
   width="34.16066"
   height="64"
   inkscape:version="1.3.2 (091e20e, 2023-11-25, custom)"
   xmlns:inkscape="http://www.inkscape.org/namespaces/inkscape"
   xmlns:sodipodi="http://sodipodi.sourceforge.net/DTD/sodipodi-0.dtd"
   xmlns="http://www.w3.org/2000/svg"
   xmlns:svg="http://www.w3.org/2000/svg"
   xmlns:rdf="http://www.w3.org/1999/02/22-rdf-syntax-ns#"
   xmlns:cc="http://creativecommons.org/ns#"
   xmlns:dc="http://purl.org/dc/elements/1.1/"><metadata
   id="metadata41"><rdf:RDF><cc:Work
       rdf:about=""><dc:format>image/svg+xml</dc:format><dc:type
         rdf:resource="http://purl.org/dc/dcmitype/StillImage" /><dc:title /></cc:Work></rdf:RDF></metadata><defs
   id="defs39" /><sodipodi:namedview
   pagecolor="#ffffff"
   bordercolor="#666666"
   borderopacity="1"
   objecttolerance="10"
   gridtolerance="10"
   guidetolerance="10"
   inkscape:pageopacity="0"
   inkscape:pageshadow="2"
   inkscape:window-width="1920"
   inkscape:window-height="1009"
   id="namedview37"
   showgrid="false"
   fit-margin-top="0"
   fit-margin-left="0"
   fit-margin-right="0"
   fit-margin-bottom="0"
   inkscape:zoom="11.570541"
   inkscape:cx="4.753451"
   inkscape:cy="34.268061"
   inkscape:window-x="-8"
   inkscape:window-y="-8"
   inkscape:window-maximized="1"
   inkscape:current-layer="Capa_1"
   inkscape:pagecheckerboard="true"
   inkscape:showpageshadow="2"
   inkscape:deskcolor="#d1d1d1" />
<g
   id="g4"
   style="fill:#000000;fill-opacity:1"
   transform="matrix(0,-0.19611148,0.19611148,0,-14.919769,64.000001)">
	<path
   style="fill:#000000;fill-opacity:1"
   d="m 28.211,250.268 h 235.327 c 15.579,0 28.211,-12.632 28.211,-28.217 V 209.7 h 20.496 c 7.781,0 14.1,-6.307 14.1,-14.094 v -65.409 c 0,-7.775 -6.325,-14.106 -14.1,-14.106 H 291.75 v -11.796 c 0,-15.579 -12.626,-28.217 -28.211,-28.217 H 28.211 C 12.644,76.078 0,88.709 0,104.295 v 117.756 c -0.006,15.586 12.638,28.217 28.211,28.217 z M 87.922,143.963 h 23.545 c 8.121,-20.574 28.372,-35.205 52.079,-35.205 h 11.438 c 8.724,0 15.824,6.766 16.522,15.311 h 27.215 c 6.904,0 12.489,5.597 12.489,12.483 0,6.928 -5.585,12.507 -12.489,12.507 h -27.084 v 27.292 h 27.084 c 6.904,0 12.489,5.585 12.489,12.477 0,6.898 -5.585,12.477 -12.489,12.477 h -27.084 v 1.372 c 0,9.213 -7.459,16.665 -16.654,16.665 h -11.438 c -24.691,0 -45.629,-15.949 -53.051,-37.919 H 87.916 c -10.335,0 -18.73,-8.395 -18.73,-18.736 0.006,-10.341 8.395,-18.724 18.736,-18.724 z"
   id="path2"
   inkscape:connector-curvature="0" />
</g>
<g
   id="g6"
   transform="translate(-14.919669,-201.18767)">
</g>
<g
   id="g8"
   transform="translate(-14.919669,-201.18767)">
</g>
<g
   id="g10"
   transform="translate(-14.919669,-201.18767)">
</g>
<g
   id="g12"
   transform="translate(-14.919669,-201.18767)">
</g>
<g
   id="g14"
   transform="translate(-14.919669,-201.18767)">
</g>
<g
   id="g16"
   transform="translate(-14.919669,-201.18767)">
</g>
<g
   id="g18"
   transform="translate(-14.919669,-201.18767)">
</g>
<g
   id="g20"
   transform="translate(-14.919669,-201.18767)">
</g>
<g
   id="g22"
   transform="translate(-14.919669,-201.18767)">
</g>
<g
   id="g24"
   transform="translate(-14.919669,-201.18767)">
</g>
<g
   id="g26"
   transform="translate(-14.919669,-201.18767)">
</g>
<g
   id="g28"
   transform="translate(-14.919669,-201.18767)">
</g>
<g
   id="g30"
   transform="translate(-14.919669,-201.18767)">
</g>
<g
   id="g32"
   transform="translate(-14.919669,-201.18767)">
</g>
<g
   id="g34"
   transform="translate(-14.919669,-201.18767)">
</g>
</svg>
